HIERARCHY
ROOT Hips
{
	OFFSET	0.00	0.00	0.00
	CHANNELS 6 Xposition Yposition Zposition Zrotation Xrotation Yrotation
	JOINT LeftUpLeg
	{
		OFFSET	 0.126116	-0.014019	-0.065224
		CHANNELS 3 Zrotation Xrotation Yrotation
		JOINT LeftLeg
		{
			OFFSET	 0.000000	 0.000000	 0.569914
			CHANNELS 3 Zrotation Xrotation Yrotation
			JOINT LeftFoot
			{
				OFFSET	 0.000000	 0.000000	 0.544423
				CHANNELS 3 Zrotation Xrotation Yrotation
				JOINT LeftToeBase
				{
					OFFSET	 0.000000	 0.000000	 0.207117
					CHANNELS 3 Zrotation Xrotation Yrotation
					End Site
					{
						OFFSET	 0.000000	 0.000000	 0.207117
					}
				}
			}
		}
	}
	JOINT RightUpLeg
	{
		OFFSET	-0.124023	-0.008373	-0.065224
		CHANNELS 3 Zrotation Xrotation Yrotation
		JOINT RightLeg
		{
			OFFSET	 0.000000	 0.000000	 0.570047
			CHANNELS 3 Zrotation Xrotation Yrotation
			JOINT RightFoot
			{
				OFFSET	 0.000000	 0.000000	 0.544354
				CHANNELS 3 Zrotation Xrotation Yrotation
				JOINT RightToeBase
				{
					OFFSET	 0.000000	 0.000000	 0.207540
					CHANNELS 3 Zrotation Xrotation Yrotation
					End Site
					{
						OFFSET	 0.000000	 0.000000	 0.207540
					}
				}
			}
		}
	}
	JOINT Spine
	{
		OFFSET	 0.000184	-0.007763	 0.117403
		CHANNELS 3 Zrotation Xrotation Yrotation
		JOINT Spine1
		{
			OFFSET	 0.000000	 0.000000	 0.137269
			CHANNELS 3 Zrotation Xrotation Yrotation
			JOINT Spine2
			{
				OFFSET	 0.000000	 0.000000	 0.156879
				CHANNELS 3 Zrotation Xrotation Yrotation
				JOINT LeftShoulder
				{
					OFFSET	 0.080501	-0.002496	 0.160144
					CHANNELS 3 Zrotation Xrotation Yrotation
					JOINT LeftArm
					{
						OFFSET	 0.000000	 0.000000	 0.164363
						CHANNELS 3 Zrotation Xrotation Yrotation
						JOINT LeftForeArm
						{
							OFFSET	 0.000000	 0.000000	 0.364576
							CHANNELS 3 Zrotation Xrotation Yrotation
							JOINT LeftHand
							{
								OFFSET	 0.000000	 0.000000	 0.360812
								CHANNELS 3 Zrotation Xrotation Yrotation
								JOINT LeftHandIndex1
								{
									OFFSET	 0.000000	 0.000000	 0.086006
									CHANNELS 3 Zrotation Xrotation Yrotation
									JOINT LeftHandIndex2
									{
										OFFSET	 0.000000	 0.000000	 0.047236
										CHANNELS 3 Zrotation Xrotation Yrotation
										JOINT LeftHandIndex3
										{
											OFFSET	-0.004284	-0.000551	 0.038166
											CHANNELS 3 Zrotation Xrotation Yrotation
											End Site
											{
												OFFSET	-0.004284	-0.000551	 0.038166
											}
										}
									}
								}
							}
						}
					}
				}
				JOINT Neck
				{
					OFFSET	 0.000000	 0.000000	 0.176489
					CHANNELS 3 Zrotation Xrotation Yrotation
					JOINT Head
					{
						OFFSET	 0.000000	-0.001747	 0.077940
						CHANNELS 3 Zrotation Xrotation Yrotation
						End Site
						{
							OFFSET	 0.000000	-0.001747	 0.077940
						}
					}
				}
				JOINT RightShoulder
				{
					OFFSET	-0.080363	 0.000306	 0.159706
					CHANNELS 3 Zrotation Xrotation Yrotation
					JOINT RightArm
					{
						OFFSET	 0.000000	 0.000000	 0.164196
						CHANNELS 3 Zrotation Xrotation Yrotation
						JOINT RightForeArm
						{
							OFFSET	 0.000000	 0.000000	 0.365611
							CHANNELS 3 Zrotation Xrotation Yrotation
							JOINT RightHand
							{
								OFFSET	 0.000000	 0.000000	 0.360648
								CHANNELS 3 Zrotation Xrotation Yrotation
								JOINT RightHandIndex1
								{
									OFFSET	 0.000000	 0.000000	 0.069977
									CHANNELS 3 Zrotation Xrotation Yrotation
									JOINT RightHandIndex2
									{
										OFFSET	 0.000000	 0.000000	 0.052305
										CHANNELS 3 Zrotation Xrotation Yrotation
										JOINT RightHandIndex3
										{
											OFFSET	 0.009002	-0.000782	 0.042196
											CHANNELS 3 Zrotation Xrotation Yrotation
											End Site
											{
												OFFSET	 0.009002	-0.000782	 0.042196
											}
										}
									}
								}
							}
						}
					}
				}
			}
		}
	}
}
MOTION
Frames:    9
Frame Time: 0.03333334
 0.011577	 0.011005	 1.200956	 5.336951	-0.762733	-2.736714	 5.420527	-9.551740	-173.840300	 1.124429	-38.206610	 0.477320	 61.217680	 82.561490	-65.428080	-2.369012	 31.679500	-0.071387	-13.050160	-33.602490	-176.559000	 10.303400	-46.114440	 8.019933	 10.428930	 74.334400	-6.305516	 2.358953	 33.002250	 0.103276	-14.360290	 8.245558	 1.952665	-2.187502	 2.510153	-1.391298	 3.131726	-2.709415	 1.600233	-94.038270	 58.969330	 175.174800	 11.115720	 30.434400	-42.786940	-5.135927	 0.149131	-3.058202	-6.503995	-30.176220	-11.123980	-4.867415	 19.313330	-2.795570	-3.874002	 21.569010	 2.195100	-4.805210	 5.581419	 0.144865	-0.053872	-5.094086	 0.209939	 1.050488	 1.662952	 2.649688	 89.743040	 61.709480	 179.906600	-20.637880	 55.055790	 9.969175	 1.638731	-1.234525	 12.847890	-1.159042	-15.770590	 1.457313	 6.284120	 24.106790	-0.543843	 1.977457	 43.946380	-7.074907	 0.679731	 23.598940	 3.491236
 0.007539	-0.070314	 1.195957	 6.239928	 0.380311	-3.037223	 4.366538	-5.343208	-174.522200	 1.481558	-35.603590	 0.657237	 74.121230	 84.103130	-78.519460	-2.366225	 32.132980	-0.081705	-16.227640	-35.953640	-178.368100	 9.703806	-30.938010	 5.422822	 6.172181	 71.045980	-3.349881	 2.360736	 32.737230	 0.097135	-22.428160	 7.238128	 1.816225	-2.375723	 3.377350	-1.043974	 2.718726	-3.787892	 1.416244	-94.318550	 58.987800	 174.574700	 8.594194	 26.473530	-44.501140	-9.681576	 0.701293	-5.665897	-12.372190	-37.023610	-15.579100	-4.850683	 19.708630	-2.815094	-3.853255	 21.832830	 2.174024	-4.796432	 5.684807	 0.138808	-0.009881	-5.164894	 0.298081	 0.745742	 1.288808	 2.526123	 89.592290	 61.920670	 179.543000	-19.747650	 57.002560	 6.827989	 3.870415	-0.076948	 13.135310	 1.922186	-21.927960	 2.424061	 6.247125	 21.759850	-0.603252	 2.215473	 41.887060	-7.284890	 1.198837	 21.248030	 3.241932
 0.001658	-0.153147	 1.183192	 6.559382	 1.065861	-3.601581	 3.863058	-0.215946	-175.120300	 1.665535	-32.712440	 0.709564	 87.711610	 85.481700	-92.111350	-2.355567	 33.719090	-0.118443	-16.007790	-39.523110	-179.180600	 9.444063	-21.919560	 3.843444	 14.932840	 75.363460	-13.448560	 2.349460	 34.326270	 0.134400	-30.302010	 6.263844	 1.995273	-2.406763	 4.742780	-0.608372	 2.191807	-4.978642	 1.092571	-94.490720	 58.951880	 174.213700	 6.574083	 23.987690	-45.940460	-14.764540	 1.705379	-8.463919	-19.917100	-42.657120	-20.693350	-4.825744	 20.296350	-2.846011	-3.818327	 22.272870	 2.138552	-4.763155	 6.075398	 0.115759	 0.036112	-5.302405	 0.346847	 0.268171	 0.873377	 2.385404	 89.424130	 62.046220	 179.134200	-17.683510	 58.111500	 3.692297	 5.720657	 1.339790	 12.921690	 4.694661	-27.810590	 3.058487	 6.187373	 18.500220	-0.716904	 2.603127	 38.169050	-7.620774	 1.888904	 17.983030	 2.939051
-0.007115	-0.242677	 1.167296	 6.980432	 1.049245	-3.669949	 3.042768	 6.467164	-176.421000	 2.145378	-28.117450	 0.845057	 50.633230	 86.082490	-55.036740	-2.306566	 39.232270	-0.255236	-15.795810	-44.116150	 179.743700	 10.053440	-21.750690	 4.047844	 14.716460	 73.792100	-14.040110	 2.337423	 35.830400	 0.170690	-37.571750	 6.148499	 1.907253	-2.347162	 5.265245	-0.368528	 1.489395	-5.998429	 0.731505	-94.529660	 59.097860	 174.106400	 4.956397	 23.384930	-46.305110	-18.806100	 3.098426	-11.136090	-28.996030	-46.034750	-28.591460	-4.865488	 20.564220	-3.155758	-3.774139	 22.822510	 2.093675	-4.695358	 6.864517	 0.068445	 0.152793	-5.451480	 0.305262	-0.228119	 0.610927	 1.950015	 89.356800	 61.772210	 178.981700	-15.095650	 58.461800	-1.159980	 7.711838	 2.880063	 15.487930	 7.993405	-32.609630	 4.234522	 6.177237	 14.896860	-0.530882	 2.962290	 34.265400	-7.923823	 2.609382	 14.413140	 2.660283
-0.017280	-0.335179	 1.157628	 7.390515	 0.589880	-2.634989	 2.902157	 12.366610	-179.108300	 1.646251	-26.053670	 0.568213	 8.400550	 82.376350	-11.353960	-2.136791	 50.008800	-0.585859	-13.650090	-42.048670	 179.009400	 6.336568	-21.872140	 2.654654	 3.074325	 67.438980	 2.702106	 2.340642	 35.444670	 0.161282	-42.925540	 6.117890	 0.847415	-2.479301	 5.321075	-0.339687	 0.641594	-6.282450	 0.284900	-94.445920	 59.368320	 174.241100	 4.301940	 23.479920	-45.317380	-22.403390	 4.565078	-13.259980	-34.767930	-45.774220	-32.983730	-4.894853	 20.734080	-3.381029	-3.751983	 23.095090	 2.071178	-4.619685	 7.734747	 0.015065	 0.271265	-5.472275	 0.240755	-0.736244	 0.619584	 2.016714	 89.346860	 61.403000	 178.971300	-13.355340	 57.742820	-2.259964	 9.941204	 4.450263	 13.326240	 10.523540	-34.359630	 5.647050	 6.282003	 11.727090	 0.087594	 3.148957	 32.040160	-8.077602	 3.165922	 11.552980	 2.473021
-0.028041	-0.432660	 1.153330	 9.087112	-0.484350	-1.391295	 3.410761	 15.428110	 177.141900	 0.184624	-29.338910	-0.082362	-2.159826	 69.887500	 3.588076	-1.653161	 63.354790	-1.254322	-12.464960	-38.566180	 178.320200	 7.033093	-26.026420	 3.435693	-8.089131	 59.343210	 17.340230	 2.338986	 35.644910	 0.166153	-46.763400	 6.397748	-0.319662	-2.772468	 5.560525	-0.421868	-0.533755	-6.351504	-0.223983	-94.336280	 59.129050	 174.515000	 4.972192	 23.491900	-44.050040	-25.575700	 6.120140	-15.076000	-35.258030	-41.660350	-31.997760	-4.867506	 21.065870	-3.331624	-3.712205	 23.579460	 2.030807	-4.542894	 8.606437	-0.039686	 0.389543	-5.375890	 0.274400	-1.489122	 0.965417	 2.146137	 89.133030	 61.219070	 178.476000	-12.025600	 57.008530	-3.692594	 12.969700	 6.008281	 15.149530	 14.296830	-32.746540	 8.382388	 6.354464	 9.243102	 0.438120	 3.351082	 29.464950	-8.240789	 3.534598	 9.614291	 2.363173
-0.041349	-0.529804	 1.155835	 10.242620	-1.127283	 0.050001	 7.906896	 11.967280	 171.001000	 1.802596	-40.851600	 0.948481	-4.396701	 51.719840	 13.880330	-1.252631	 68.787470	-1.726944	-15.911410	-36.924080	 175.672700	 7.290723	-33.198100	 4.427311	-6.189858	 57.236220	 16.284120	 2.363281	 32.347320	 0.088150	-47.102390	 6.405424	-1.340819	-2.608962	 5.498414	-0.516217	-1.851508	-6.262326	-0.798203	-94.134760	 59.772190	 174.850700	 6.824784	 24.868890	-42.757810	-26.814520	 7.645477	-16.580440	-33.274610	-35.344690	-29.623600	-4.781189	 21.381780	-2.920138	-3.639879	 24.444200	 1.957421	-4.484167	 9.265210	-0.081938	 0.362902	-5.362011	 0.189793	-2.533932	 1.278661	 2.066925	 88.996770	 60.400250	 178.206300	-11.295560	 55.926790	-4.414021	 16.933830	 7.559715	 16.653530	 18.396720	-28.832740	 10.141240	 6.392229	 8.807917	 0.593375	 3.387103	 28.986950	-8.269477	 3.672484	 8.881062	 2.325085
-0.052713	-0.625068	 1.163919	 8.499739	-2.007181	 1.266480	 16.352110	 5.366297	 164.150200	-0.900404	-53.336210	-1.005255	 3.749981	 43.998220	 11.175950	-2.375077	 30.626050	-0.047702	-15.772180	-33.992930	 174.083100	 6.204118	-39.066470	 4.400681	-4.152550	 61.573570	 15.289420	 2.374331	 30.484030	 0.045993	-42.862830	 7.042080	-2.385749	-1.870366	 4.557084	 0.240718	-2.814503	-5.753820	-1.839399	-94.030320	 59.696020	 175.089600	 8.564961	 26.691170	-40.722010	-27.513370	 9.055812	-17.783330	-30.694190	-29.227010	-25.036700	-4.719016	 22.082590	-2.765575	-3.563846	 25.331620	 1.880313	-4.405428	 10.137920	-0.139100	 0.246321	-5.398479	 0.162725	-3.770656	 1.224446	 2.181806	 89.146770	 60.282780	 178.554400	-11.822980	 55.826730	-6.011218	 19.383320	 10.133530	 24.048640	 21.217730	-23.383160	 10.118780	 6.404031	 10.646740	 0.631876	 3.242077	 30.875850	-8.153246	 3.503592	 9.778583	 2.371966
-0.059127	-0.710643	 1.175513	 6.572839	-2.946309	 1.661287	 18.999400	-2.227309	 162.687500	-6.526386	-65.371260	-6.258495	 8.149230	 51.779530	 4.162401	-2.381086	 29.469640	-0.022129	-15.181180	-29.662720	 173.649400	 5.648652	-41.522710	 4.256971	-4.913286	 67.150490	 16.157970	 2.374323	 30.486240	 0.046040	-36.522310	 7.684427	-2.704182	-1.072394	 4.503384	 0.704514	-3.660777	-5.522771	-2.391441	-93.923260	 59.484680	 175.351600	 10.264670	 28.547000	-39.241980	-27.834120	 10.219810	-18.663700	-28.668050	-22.715900	-20.050560	-4.622555	 23.384940	-2.576345	-3.485566	 26.222880	 1.800956	-4.282474	 11.476480	-0.229497	 0.111375	-5.288006	 0.049327	-4.986040	 1.051780	 2.009268	 89.434760	 60.194870	 179.211800	-13.499530	 54.479960	-2.820988	 21.978330	 12.555660	 28.678820	 22.858680	-17.702490	 8.504226	 6.380045	 13.562660	 0.501719	 3.000545	 33.820790	-7.955564	 3.115010	 11.818040	 2.489095
